<svg width="50" height="20" viewBox="0 0 50 20" fill="none" xmlns="http://www.w3.org/2000/svg">
<path d="M34.31 16.06C33.77 16.06 33.2867 15.9167 32.86 15.63C32.44 15.3433 32.11 14.9333 31.87 14.4C31.6367 13.86 31.52 13.2267 31.52 12.5C31.52 11.7733 31.6367 11.1433 31.87 10.61C32.11 10.07 32.44 9.65667 32.86 9.37C33.2867 9.08333 33.77 8.94 34.31 8.94C34.85 8.94 35.33 9.08333 35.75 9.37C36.1767 9.65667 36.51 10.07 36.75 10.61C36.99 11.1433 37.11 11.7733 37.11 12.5C37.11 13.2267 36.99 13.86 36.75 14.4C36.51 14.9333 36.1767 15.3433 35.75 15.63C35.33 15.9167 34.85 16.06 34.31 16.06ZM34.31 15.4C34.7167 15.4 35.0733 15.2867 35.38 15.06C35.6933 14.8333 35.9367 14.5033 36.11 14.07C36.2833 13.6367 36.37 13.1133 36.37 12.5C36.37 11.8867 36.2833 11.3633 36.11 10.93C35.9367 10.4967 35.6933 10.1667 35.38 9.94C35.0733 9.71333 34.7167 9.6 34.31 9.6C33.9033 9.6 33.5433 9.71333 33.23 9.94C32.9233 10.1667 32.6833 10.4967 32.51 10.93C32.3367 11.3633 32.25 11.8867 32.25 12.5C32.25 13.1133 32.3367 13.6367 32.51 14.07C32.6833 14.5033 32.9233 14.8333 33.23 15.06C33.5433 15.2867 33.9033 15.4 34.31 15.4ZM41.3211 10.7C41.8144 10.7 42.2611 10.8133 42.6611 11.04C43.0611 11.26 43.3744 11.5733 43.6011 11.98C43.8278 12.3867 43.9411 12.85 43.9411 13.37C43.9411 13.8967 43.8278 14.3633 43.6011 14.77C43.3744 15.1767 43.0611 15.4933 42.6611 15.72C42.2678 15.94 41.8211 16.05 41.3211 16.05C40.8944 16.05 40.5078 15.9633 40.1611 15.79C39.8211 15.61 39.5411 15.35 39.3211 15.01V17.94H38.6111V10.74H39.2911V11.78C39.5044 11.4333 39.7844 11.1667 40.1311 10.98C40.4844 10.7933 40.8811 10.7 41.3211 10.7ZM41.2711 15.42C41.6378 15.42 41.9711 15.3367 42.2711 15.17C42.5711 14.9967 42.8044 14.7533 42.9711 14.44C43.1444 14.1267 43.2311 13.77 43.2311 13.37C43.2311 12.97 43.1444 12.6167 42.9711 12.31C42.8044 11.9967 42.5711 11.7533 42.2711 11.58C41.9711 11.4067 41.6378 11.32 41.2711 11.32C40.8978 11.32 40.5611 11.4067 40.2611 11.58C39.9678 11.7533 39.7344 11.9967 39.5611 12.31C39.3944 12.6167 39.3111 12.97 39.3111 13.37C39.3111 13.77 39.3944 14.1267 39.5611 14.44C39.7344 14.7533 39.9678 14.9967 40.2611 15.17C40.5611 15.3367 40.8978 15.42 41.2711 15.42ZM48.5529 16L46.8829 13.8L45.2029 16H44.4029L46.4829 13.3L44.5029 10.74H45.3029L46.8829 12.8L48.4629 10.74H49.2429L47.2629 13.3L49.3629 16H48.5529Z" fill="black"/>
<path d="M0 14L27 14" stroke="black"/>
<path d="M0 1L27 1" stroke="black" stroke-width="2"/>
<path d="M0 19H27" stroke="black"/>
</svg>
