<svg width="32" height="20" viewBox="0 0 32 20" fill="none" xmlns="http://www.w3.org/2000/svg">
<path d="M10.924 12.382H5.464L4.288 15H3.21L7.69 5.2H8.712L13.192 15H12.1L10.924 12.382ZM10.546 11.542L8.194 6.278L5.842 11.542H10.546Z" fill="black"/>
<path d="M20.31 15.06C19.77 15.06 19.2867 14.9167 18.86 14.63C18.44 14.3433 18.11 13.9333 17.87 13.4C17.6367 12.86 17.52 12.2267 17.52 11.5C17.52 10.7733 17.6367 10.1433 17.87 9.61C18.11 9.07 18.44 8.65667 18.86 8.37C19.2867 8.08333 19.77 7.94 20.31 7.94C20.85 7.94 21.33 8.08333 21.75 8.37C22.1767 8.65667 22.51 9.07 22.75 9.61C22.99 10.1433 23.11 10.7733 23.11 11.5C23.11 12.2267 22.99 12.86 22.75 13.4C22.51 13.9333 22.1767 14.3433 21.75 14.63C21.33 14.9167 20.85 15.06 20.31 15.06ZM20.31 14.4C20.7167 14.4 21.0733 14.2867 21.38 14.06C21.6933 13.8333 21.9367 13.5033 22.11 13.07C22.2833 12.6367 22.37 12.1133 22.37 11.5C22.37 10.8867 22.2833 10.3633 22.11 9.93C21.9367 9.49667 21.6933 9.16667 21.38 8.94C21.0733 8.71333 20.7167 8.6 20.31 8.6C19.9033 8.6 19.5433 8.71333 19.23 8.94C18.9233 9.16667 18.6833 9.49667 18.51 9.93C18.3367 10.3633 18.25 10.8867 18.25 11.5C18.25 12.1133 18.3367 12.6367 18.51 13.07C18.6833 13.5033 18.9233 13.8333 19.23 14.06C19.5433 14.2867 19.9033 14.4 20.31 14.4ZM25.6211 11.75C25.1478 11.75 24.7644 11.5767 24.4711 11.23C24.1844 10.8767 24.0411 10.4167 24.0411 9.85C24.0411 9.28333 24.1844 8.82667 24.4711 8.48C24.7644 8.12667 25.1478 7.95 25.6211 7.95C26.0878 7.95 26.4678 8.12333 26.7611 8.47C27.0544 8.81667 27.2011 9.27667 27.2011 9.85C27.2011 10.4233 27.0544 10.8833 26.7611 11.23C26.4678 11.5767 26.0878 11.75 25.6211 11.75ZM29.8611 8H30.4511L25.6711 15H25.0811L29.8611 8ZM25.6211 11.3C25.9478 11.3 26.2078 11.1733 26.4011 10.92C26.6011 10.66 26.7011 10.3033 26.7011 9.85C26.7011 9.39667 26.6011 9.04333 26.4011 8.79C26.2078 8.53 25.9478 8.4 25.6211 8.4C25.2878 8.4 25.0244 8.53 24.8311 8.79C24.6378 9.05 24.5411 9.40333 24.5411 9.85C24.5411 10.2967 24.6378 10.65 24.8311 10.91C25.0244 11.17 25.2878 11.3 25.6211 11.3ZM29.9111 15.05C29.4444 15.05 29.0644 14.8767 28.7711 14.53C28.4778 14.1767 28.3311 13.7167 28.3311 13.15C28.3311 12.5833 28.4778 12.1267 28.7711 11.78C29.0644 11.4267 29.4444 11.25 29.9111 11.25C30.3844 11.25 30.7644 11.4267 31.0511 11.78C31.3444 12.1267 31.4911 12.5833 31.4911 13.15C31.4911 13.7167 31.3444 14.1767 31.0511 14.53C30.7644 14.8767 30.3844 15.05 29.9111 15.05ZM29.9111 14.6C30.2444 14.6 30.5078 14.47 30.7011 14.21C30.8944 13.95 30.9911 13.5967 30.9911 13.15C30.9911 12.7033 30.8944 12.35 30.7011 12.09C30.5078 11.83 30.2444 11.7 29.9111 11.7C29.5844 11.7 29.3211 11.83 29.1211 12.09C28.9278 12.3433 28.8311 12.6967 28.8311 13.15C28.8311 13.6033 28.9278 13.96 29.1211 14.22C29.3211 14.4733 29.5844 14.6 29.9111 14.6Z" fill="black"/>
<path d="M1 20L1 -3.57628e-07" stroke="black"/>
<path d="M15 20L15 -3.57628e-07" stroke="black"/>
</svg>
