<svg width="48" height="17" viewBox="0 0 48 17" fill="none" xmlns="http://www.w3.org/2000/svg">
<path d="M12.924 11.382H7.464L6.288 14H5.21L9.69 4.2H10.712L15.192 14H14.1L12.924 11.382ZM12.546 10.542L10.194 5.278L7.842 10.542H12.546Z" fill="black"/>
<path d="M28.53 11.13H24.63L23.79 13H23.02L26.22 6H26.95L30.15 13H29.37L28.53 11.13ZM28.26 10.53L26.58 6.77L24.9 10.53H28.26ZM35.8003 7.74V13H35.1203V12.04C34.9336 12.36 34.677 12.61 34.3503 12.79C34.0236 12.9633 33.6503 13.05 33.2303 13.05C32.5436 13.05 32.0003 12.86 31.6003 12.48C31.207 12.0933 31.0103 11.53 31.0103 10.79V7.74H31.7203V10.72C31.7203 11.2733 31.857 11.6933 32.1303 11.98C32.4036 12.2667 32.7936 12.41 33.3003 12.41C33.8536 12.41 34.2903 12.2433 34.6103 11.91C34.9303 11.57 35.0903 11.1 35.0903 10.5V7.74H35.8003ZM40.5588 12.68C40.4255 12.8 40.2588 12.8933 40.0588 12.96C39.8655 13.02 39.6622 13.05 39.4488 13.05C38.9555 13.05 38.5755 12.9167 38.3088 12.65C38.0422 12.3833 37.9088 12.0067 37.9088 11.52V8.34H36.9688V7.74H37.9088V6.59H38.6188V7.74H40.2188V8.34H38.6188V11.48C38.6188 11.7933 38.6955 12.0333 38.8488 12.2C39.0088 12.36 39.2355 12.44 39.5288 12.44C39.6755 12.44 39.8155 12.4167 39.9488 12.37C40.0888 12.3233 40.2088 12.2567 40.3088 12.17L40.5588 12.68ZM43.8158 13.05C43.3091 13.05 42.8524 12.9367 42.4458 12.71C42.0391 12.4767 41.7191 12.1567 41.4858 11.75C41.2524 11.3433 41.1358 10.8833 41.1358 10.37C41.1358 9.85667 41.2524 9.39667 41.4858 8.99C41.7191 8.58333 42.0391 8.26667 42.4458 8.04C42.8524 7.81333 43.3091 7.7 43.8158 7.7C44.3224 7.7 44.7791 7.81333 45.1858 8.04C45.5924 8.26667 45.9091 8.58333 46.1358 8.99C46.3691 9.39667 46.4858 9.85667 46.4858 10.37C46.4858 10.8833 46.3691 11.3433 46.1358 11.75C45.9091 12.1567 45.5924 12.4767 45.1858 12.71C44.7791 12.9367 44.3224 13.05 43.8158 13.05ZM43.8158 12.42C44.1891 12.42 44.5224 12.3367 44.8158 12.17C45.1158 11.9967 45.3491 11.7533 45.5158 11.44C45.6824 11.1267 45.7658 10.77 45.7658 10.37C45.7658 9.97 45.6824 9.61333 45.5158 9.3C45.3491 8.98667 45.1158 8.74667 44.8158 8.58C44.5224 8.40667 44.1891 8.32 43.8158 8.32C43.4424 8.32 43.1058 8.40667 42.8058 8.58C42.5124 8.74667 42.2791 8.98667 42.1058 9.3C41.9391 9.61333 41.8558 9.97 41.8558 10.37C41.8558 10.77 41.9391 11.1267 42.1058 11.44C42.2791 11.7533 42.5124 11.9967 42.8058 12.17C43.1058 12.3367 43.4424 12.42 43.8158 12.42Z" fill="black"/>
<path d="M0 16H20" stroke="black"/>
<path d="M0 2H20" stroke="black"/>
</svg>
